<svg width="145" height="37" viewBox="0 0 145 37" fill="none" xmlns="http://www.w3.org/2000/svg">
<g clip-path="url(#clip0_569_34)">
<path d="M13.128 27.384C10.952 27.384 9.064 26.904 7.464 25.944C5.88533 24.9627 4.66933 23.608 3.816 21.88C2.96267 20.1307 2.536 18.104 2.536 15.8C2.536 13.496 2.96267 11.48 3.816 9.752C4.66933 8.00267 5.88533 6.648 7.464 5.688C9.064 4.70667 10.952 4.216 13.128 4.216C15.688 4.216 17.768 4.824 19.368 6.04C20.968 7.256 21.992 8.97333 22.44 11.192H19.464C19.1227 9.80533 18.4293 8.696 17.384 7.864C16.3387 7.01067 14.92 6.584 13.128 6.584C11.528 6.584 10.1413 6.95733 8.968 7.704C7.79467 8.42933 6.888 9.48533 6.248 10.872C5.608 12.2373 5.288 13.88 5.288 15.8C5.288 17.72 5.608 19.3733 6.248 20.76C6.888 22.1253 7.79467 23.1813 8.968 23.928C10.1413 24.6533 11.528 25.016 13.128 25.016C14.92 25.016 16.3387 24.6107 17.384 23.8C18.4293 22.968 19.1227 21.8693 19.464 20.504H22.44C21.992 22.6587 20.968 24.344 19.368 25.56C17.768 26.776 15.688 27.384 13.128 27.384ZM26.1775 27V3.96H28.8655V27H26.1775ZM40.5025 27.384C39.0092 27.384 37.6652 27.0427 36.4705 26.36C35.2758 25.656 34.3372 24.6747 33.6545 23.416C32.9718 22.136 32.6305 20.6533 32.6305 18.968C32.6305 17.24 32.9718 15.7467 33.6545 14.488C34.3585 13.208 35.3078 12.2267 36.5025 11.544C37.7185 10.84 39.0732 10.488 40.5665 10.488C42.1025 10.488 43.4572 10.84 44.6305 11.544C45.8252 12.2267 46.7638 13.208 47.4465 14.488C48.1505 15.7467 48.5025 17.2293 48.5025 18.936C48.5025 20.6427 48.1505 22.136 47.4465 23.416C46.7425 24.6747 45.7932 25.656 44.5985 26.36C43.4038 27.0427 42.0385 27.384 40.5025 27.384ZM40.5345 25.08C41.4518 25.08 42.3052 24.856 43.0945 24.408C43.8838 23.9387 44.5238 23.2453 45.0145 22.328C45.5052 21.4107 45.7505 20.28 45.7505 18.936C45.7505 17.5707 45.5052 16.44 45.0145 15.544C44.5452 14.6267 43.9158 13.944 43.1265 13.496C42.3585 13.0267 41.5052 12.792 40.5665 12.792C39.6705 12.792 38.8172 13.0267 38.0065 13.496C37.2172 13.944 36.5772 14.6267 36.0865 15.544C35.6172 16.44 35.3825 17.5707 35.3825 18.936C35.3825 20.28 35.6172 21.4107 36.0865 22.328C36.5772 23.2453 37.2065 23.9387 37.9745 24.408C38.7638 24.856 39.6172 25.08 40.5345 25.08ZM57.9823 27C57.0223 27 56.1903 26.8507 55.4863 26.552C54.7823 26.2533 54.2383 25.752 53.8543 25.048C53.4916 24.3227 53.3103 23.352 53.3103 22.136V13.144H50.4943V10.872H53.3103L53.6623 6.968H55.9983V10.872H60.6703V13.144H55.9983V22.136C55.9983 23.1387 56.2009 23.8213 56.6063 24.184C57.0116 24.5253 57.7263 24.696 58.7503 24.696H60.4783V27H57.9823ZM64.1775 27V3.96H66.8655V13.592C67.3988 12.632 68.1455 11.8747 69.1055 11.32C70.0868 10.7653 71.1535 10.488 72.3055 10.488C73.5428 10.488 74.6202 10.744 75.5375 11.256C76.4548 11.7467 77.1588 12.504 77.6495 13.528C78.1402 14.552 78.3855 15.8427 78.3855 17.4V27H75.7295V17.688C75.7295 16.0667 75.3882 14.8507 74.7055 14.04C74.0228 13.208 73.0308 12.792 71.7295 12.792C70.8122 12.792 69.9802 13.016 69.2335 13.464C68.5082 13.912 67.9322 14.552 67.5055 15.384C67.0788 16.216 66.8655 17.24 66.8655 18.456V27H64.1775ZM82.8398 27V10.872H85.5278V27H82.8398ZM84.1838 7.448C83.6504 7.448 83.2024 7.27733 82.8398 6.936C82.4984 6.57333 82.3278 6.12533 82.3278 5.592C82.3278 5.05867 82.4984 4.632 82.8398 4.312C83.2024 3.97067 83.6504 3.8 84.1838 3.8C84.6958 3.8 85.1331 3.97067 85.4958 4.312C85.8584 4.632 86.0398 5.05867 86.0398 5.592C86.0398 6.12533 85.8584 6.57333 85.4958 6.936C85.1331 7.27733 84.6958 7.448 84.1838 7.448ZM103.167 34.04V24.376C102.655 25.208 101.909 25.9227 100.927 26.52C99.9673 27.096 98.7939 27.384 97.4073 27.384C95.8286 27.384 94.4526 27.0213 93.2793 26.296C92.1059 25.5493 91.1993 24.5467 90.5593 23.288C89.9193 22.008 89.5993 20.5573 89.5993 18.936C89.5993 17.3147 89.9193 15.8747 90.5593 14.616C91.1993 13.336 92.1059 12.3333 93.2793 11.608C94.4739 10.8613 95.8499 10.488 97.4073 10.488C98.3246 10.488 99.1459 10.616 99.8713 10.872C100.618 11.128 101.269 11.4907 101.823 11.96C102.378 12.408 102.826 12.9307 103.167 13.528L103.423 10.872H105.855V34.04H103.167ZM97.6953 25.048C98.7619 25.048 99.7006 24.792 100.511 24.28C101.322 23.768 101.951 23.064 102.399 22.168C102.847 21.2507 103.071 20.1733 103.071 18.936C103.071 17.72 102.847 16.6533 102.399 15.736C101.951 14.8187 101.322 14.104 100.511 13.592C99.7006 13.08 98.7619 12.824 97.6953 12.824C96.6499 12.824 95.7219 13.08 94.9113 13.592C94.1006 14.104 93.4713 14.8187 93.0233 15.736C92.5753 16.6533 92.3513 17.72 92.3513 18.936C92.3513 20.1733 92.5753 21.2507 93.0233 22.168C93.4713 23.064 94.1006 23.768 94.9113 24.28C95.7219 24.792 96.6499 25.048 97.6953 25.048ZM116.19 27.384C114.952 27.384 113.864 27.1387 112.926 26.648C112.008 26.1573 111.294 25.4 110.782 24.376C110.291 23.352 110.046 22.072 110.046 20.536V10.872H112.734V20.248C112.734 21.848 113.086 23.0533 113.79 23.864C114.494 24.6747 115.486 25.08 116.766 25.08C117.662 25.08 118.472 24.8667 119.198 24.44C119.923 23.992 120.488 23.3627 120.894 22.552C121.32 21.72 121.534 20.7067 121.534 19.512V10.872H124.222V27H121.79L121.63 24.184C121.139 25.1867 120.414 25.976 119.454 26.552C118.494 27.1067 117.406 27.384 116.19 27.384ZM135.75 27.384C134.235 27.384 132.891 27.032 131.718 26.328C130.566 25.624 129.659 24.6427 128.998 23.384C128.336 22.104 128.006 20.6213 128.006 18.936C128.006 17.2293 128.326 15.7467 128.966 14.488C129.627 13.2293 130.544 12.248 131.718 11.544C132.912 10.84 134.278 10.488 135.814 10.488C137.392 10.488 138.726 10.84 139.814 11.544C140.923 12.248 141.766 13.176 142.342 14.328C142.939 15.4587 143.238 16.7067 143.238 18.072C143.238 18.2853 143.238 18.5093 143.238 18.744C143.238 18.9787 143.227 19.2453 143.206 19.544H130.022V17.464H140.614C140.55 15.992 140.059 14.84 139.142 14.008C138.246 13.176 137.115 12.76 135.75 12.76C134.832 12.76 133.979 12.9733 133.19 13.4C132.422 13.8053 131.803 14.4133 131.334 15.224C130.864 16.0133 130.63 17.0053 130.63 18.2V19.096C130.63 20.4187 130.864 21.528 131.334 22.424C131.824 23.32 132.454 23.992 133.222 24.44C134.011 24.888 134.854 25.112 135.75 25.112C136.88 25.112 137.808 24.8667 138.534 24.376C139.28 23.864 139.814 23.1813 140.134 22.328H142.79C142.534 23.288 142.086 24.152 141.446 24.92C140.806 25.688 140.006 26.296 139.046 26.744C138.107 27.1707 137.008 27.384 135.75 27.384Z" fill="#111212"/>
</g>
<defs>
<clipPath id="clip0_569_34">
<rect width="145" height="37" fill="white"/>
</clipPath>
</defs>
</svg>
